<?xml version="1.0" encoding="UTF-8"?>
<svg xmlns="http://www.w3.org/2000/svg" xmlns:xlink="http://www.w3.org/1999/xlink" width="450pt" height="225pt" viewBox="0 0 450 225" version="1.1">
<g id="surface11">
<rect x="0" y="0" width="450" height="225" style="fill:rgb(100%,100%,100%);fill-opacity:1;stroke:none;"/>
<path style="fill:none;stroke-width:0.75;stroke-linecap:round;stroke-linejoin:round;stroke:rgb(66.27451%,66.27451%,66.27451%);stroke-opacity:1;stroke-miterlimit:10;" d="M 182.8125 64.839844 L 310.578125 145.757813 "/>
<path style="fill:none;stroke-width:0.75;stroke-linecap:round;stroke-linejoin:round;stroke:rgb(66.27451%,66.27451%,66.27451%);stroke-opacity:1;stroke-miterlimit:10;" d="M 180.925781 64.960938 L 173.847656 145.636719 "/>
<path style="fill:none;stroke-width:0.75;stroke-linecap:round;stroke-linejoin:round;stroke:rgb(66.27451%,66.27451%,66.27451%);stroke-opacity:1;stroke-miterlimit:10;" d="M 179.878906 64.914063 L 101.9375 145.6875 "/>
<path style="fill:none;stroke-width:0.75;stroke-linecap:round;stroke-linejoin:round;stroke:rgb(66.27451%,66.27451%,66.27451%);stroke-opacity:1;stroke-miterlimit:10;" d="M 181.46875 64.953125 L 209.78125 145.644531 "/>
<path style="fill:none;stroke-width:0.75;stroke-linecap:round;stroke-linejoin:round;stroke:rgb(66.27451%,66.27451%,66.27451%);stroke-opacity:1;stroke-miterlimit:10;" d="M 182.648438 64.863281 L 296.152344 145.734375 "/>
<path style="fill:none;stroke-width:0.75;stroke-linecap:round;stroke-linejoin:round;stroke:rgb(66.27451%,66.27451%,66.27451%);stroke-opacity:1;stroke-miterlimit:10;" d="M 180.28125 64.941406 L 130.71875 145.660156 "/>
<path style="fill:none;stroke-width:0.75;stroke-linecap:round;stroke-linejoin:round;stroke:rgb(66.27451%,66.27451%,66.27451%);stroke-opacity:1;stroke-miterlimit:10;" d="M 181.683594 64.945313 L 224.160156 145.652344 "/>
<path style="fill:none;stroke-width:0.75;stroke-linecap:round;stroke-linejoin:round;stroke:rgb(66.27451%,66.27451%,66.27451%);stroke-opacity:1;stroke-miterlimit:10;" d="M 180.492188 64.949219 L 145.097656 145.648438 "/>
<path style="fill:none;stroke-width:0.75;stroke-linecap:round;stroke-linejoin:round;stroke:rgb(66.27451%,66.27451%,66.27451%);stroke-opacity:1;stroke-miterlimit:10;" d="M 211.65625 64.886719 L 310.917969 145.714844 "/>
<path style="fill:none;stroke-width:0.75;stroke-linecap:round;stroke-linejoin:round;stroke:rgb(66.27451%,66.27451%,66.27451%);stroke-opacity:1;stroke-miterlimit:10;" d="M 209.675781 64.949219 L 174.28125 145.648438 "/>
<path style="fill:none;stroke-width:0.75;stroke-linecap:round;stroke-linejoin:round;stroke:rgb(66.27451%,66.27451%,66.27451%);stroke-opacity:1;stroke-miterlimit:10;" d="M 208.691406 64.875 L 102.308594 145.726563 "/>
<path style="fill:none;stroke-width:0.75;stroke-linecap:round;stroke-linejoin:round;stroke:rgb(66.27451%,66.27451%,66.27451%);stroke-opacity:1;stroke-miterlimit:10;" d="M 210.21875 64.960938 L 210.21875 145.636719 "/>
<path style="fill:none;stroke-width:0.75;stroke-linecap:round;stroke-linejoin:round;stroke:rgb(66.27451%,66.27451%,66.27451%);stroke-opacity:1;stroke-miterlimit:10;" d="M 211.46875 64.902344 L 296.515625 145.695313 "/>
<path style="fill:none;stroke-width:0.75;stroke-linecap:round;stroke-linejoin:round;stroke:rgb(66.27451%,66.27451%,66.27451%);stroke-opacity:1;stroke-miterlimit:10;" d="M 209.0625 64.914063 L 131.121094 145.6875 "/>
<path style="fill:none;stroke-width:0.75;stroke-linecap:round;stroke-linejoin:round;stroke:rgb(66.27451%,66.27451%,66.27451%);stroke-opacity:1;stroke-miterlimit:10;" d="M 212.152344 64.816406 L 354.195313 145.78125 "/>
<path style="fill:none;stroke-width:0.75;stroke-linecap:round;stroke-linejoin:round;stroke:rgb(66.27451%,66.27451%,66.27451%);stroke-opacity:1;stroke-miterlimit:10;" d="M 211.832031 64.863281 L 325.335938 145.734375 "/>
<path style="fill:none;stroke-width:0.75;stroke-linecap:round;stroke-linejoin:round;stroke:rgb(66.27451%,66.27451%,66.27451%);stroke-opacity:1;stroke-miterlimit:10;" d="M 211.996094 64.839844 L 339.761719 145.757813 "/>
<path style="fill:none;stroke-width:0.75;stroke-linecap:round;stroke-linejoin:round;stroke:rgb(66.27451%,66.27451%,66.27451%);stroke-opacity:1;stroke-miterlimit:10;" d="M 211.074219 64.933594 L 267.726563 145.664063 "/>
<path style="fill:none;stroke-width:0.75;stroke-linecap:round;stroke-linejoin:round;stroke:rgb(66.27451%,66.27451%,66.27451%);stroke-opacity:1;stroke-miterlimit:10;" d="M 210.4375 64.960938 L 224.589844 145.640625 "/>
<path style="fill:none;stroke-width:0.75;stroke-linecap:round;stroke-linejoin:round;stroke:rgb(66.27451%,66.27451%,66.27451%);stroke-opacity:1;stroke-miterlimit:10;" d="M 208.871094 64.894531 L 116.71875 145.707031 "/>
<path style="fill:none;stroke-width:0.75;stroke-linecap:round;stroke-linejoin:round;stroke:rgb(66.27451%,66.27451%,66.27451%);stroke-opacity:1;stroke-miterlimit:10;" d="M 211.273438 64.921875 L 282.117188 145.679688 "/>
<path style="fill:none;stroke-width:0.75;stroke-linecap:round;stroke-linejoin:round;stroke:rgb(66.27451%,66.27451%,66.27451%);stroke-opacity:1;stroke-miterlimit:10;" d="M 209.464844 64.941406 L 159.898438 145.660156 "/>
<path style="fill:none;stroke-width:0.75;stroke-linecap:round;stroke-linejoin:round;stroke:rgb(66.27451%,66.27451%,66.27451%);stroke-opacity:1;stroke-miterlimit:10;" d="M 210.867188 64.945313 L 253.34375 145.652344 "/>
<path style="fill:none;stroke-width:0.75;stroke-linecap:round;stroke-linejoin:round;stroke:rgb(66.27451%,66.27451%,66.27451%);stroke-opacity:1;stroke-miterlimit:10;" d="M 210.652344 64.953125 L 238.964844 145.644531 "/>
<path style="fill:none;stroke-width:0.75;stroke-linecap:round;stroke-linejoin:round;stroke:rgb(66.27451%,66.27451%,66.27451%);stroke-opacity:1;stroke-miterlimit:10;" d="M 130.613281 64.945313 L 173.089844 145.652344 "/>
<path style="fill:none;stroke-width:0.75;stroke-linecap:round;stroke-linejoin:round;stroke:rgb(66.27451%,66.27451%,66.27451%);stroke-opacity:1;stroke-miterlimit:10;" d="M 129.527344 64.953125 L 101.214844 145.644531 "/>
<path style="fill:none;stroke-width:0.75;stroke-linecap:round;stroke-linejoin:round;stroke:rgb(66.27451%,66.27451%,66.27451%);stroke-opacity:1;stroke-miterlimit:10;" d="M 131.121094 64.914063 L 209.0625 145.6875 "/>
<path style="fill:none;stroke-width:0.75;stroke-linecap:round;stroke-linejoin:round;stroke:rgb(66.27451%,66.27451%,66.27451%);stroke-opacity:1;stroke-miterlimit:10;" d="M 129.964844 64.960938 L 129.964844 145.636719 "/>
<path style="fill:none;stroke-width:0.75;stroke-linecap:round;stroke-linejoin:round;stroke:rgb(66.27451%,66.27451%,66.27451%);stroke-opacity:1;stroke-miterlimit:10;" d="M 348.292969 64.949219 L 312.898438 145.648438 "/>
<path style="fill:none;stroke-width:0.75;stroke-linecap:round;stroke-linejoin:round;stroke:rgb(66.27451%,66.27451%,66.27451%);stroke-opacity:1;stroke-miterlimit:10;" d="M 346.617188 64.769531 L 175.957031 145.832031 "/>
<path style="fill:none;stroke-width:0.75;stroke-linecap:round;stroke-linejoin:round;stroke:rgb(66.27451%,66.27451%,66.27451%);stroke-opacity:1;stroke-miterlimit:10;" d="M 346.976563 64.832031 L 212.078125 145.769531 "/>
<path style="fill:none;stroke-width:0.75;stroke-linecap:round;stroke-linejoin:round;stroke:rgb(66.27451%,66.27451%,66.27451%);stroke-opacity:1;stroke-miterlimit:10;" d="M 348.082031 64.941406 L 298.519531 145.660156 "/>
<path style="fill:none;stroke-width:0.75;stroke-linecap:round;stroke-linejoin:round;stroke:rgb(66.27451%,66.27451%,66.27451%);stroke-opacity:1;stroke-miterlimit:10;" d="M 348.945313 64.960938 L 356.023438 145.636719 "/>
<path style="fill:none;stroke-width:0.75;stroke-linecap:round;stroke-linejoin:round;stroke:rgb(66.27451%,66.27451%,66.27451%);stroke-opacity:1;stroke-miterlimit:10;" d="M 348.507813 64.957031 L 327.277344 145.640625 "/>
<path style="fill:none;stroke-width:0.75;stroke-linecap:round;stroke-linejoin:round;stroke:rgb(66.27451%,66.27451%,66.27451%);stroke-opacity:1;stroke-miterlimit:10;" d="M 348.726563 64.960938 L 341.648438 145.636719 "/>
<path style="fill:none;stroke-width:0.75;stroke-linecap:round;stroke-linejoin:round;stroke:rgb(66.27451%,66.27451%,66.27451%);stroke-opacity:1;stroke-miterlimit:10;" d="M 347.878906 64.929688 L 284.132813 145.671875 "/>
<path style="fill:none;stroke-width:0.75;stroke-linecap:round;stroke-linejoin:round;stroke:rgb(66.27451%,66.27451%,66.27451%);stroke-opacity:1;stroke-miterlimit:10;" d="M 349.164063 64.957031 L 370.394531 145.640625 "/>
<path style="fill:none;stroke-width:0.75;stroke-linecap:round;stroke-linejoin:round;stroke:rgb(66.27451%,66.27451%,66.27451%);stroke-opacity:1;stroke-miterlimit:10;" d="M 290.796875 64.957031 L 312.03125 145.640625 "/>
<path style="fill:none;stroke-width:0.75;stroke-linecap:round;stroke-linejoin:round;stroke:rgb(66.27451%,66.27451%,66.27451%);stroke-opacity:1;stroke-miterlimit:10;" d="M 288.855469 64.863281 L 175.351563 145.734375 "/>
<path style="fill:none;stroke-width:0.75;stroke-linecap:round;stroke-linejoin:round;stroke:rgb(66.27451%,66.27451%,66.27451%);stroke-opacity:1;stroke-miterlimit:10;" d="M 289.3125 64.914063 L 211.375 145.6875 "/>
<path style="fill:none;stroke-width:0.75;stroke-linecap:round;stroke-linejoin:round;stroke:rgb(66.27451%,66.27451%,66.27451%);stroke-opacity:1;stroke-miterlimit:10;" d="M 290.578125 64.960938 L 297.65625 145.636719 "/>
<path style="fill:none;stroke-width:0.75;stroke-linecap:round;stroke-linejoin:round;stroke:rgb(66.27451%,66.27451%,66.27451%);stroke-opacity:1;stroke-miterlimit:10;" d="M 288.386719 64.792969 L 132.046875 145.804688 "/>
<path style="fill:none;stroke-width:0.75;stroke-linecap:round;stroke-linejoin:round;stroke:rgb(66.27451%,66.27451%,66.27451%);stroke-opacity:1;stroke-miterlimit:10;" d="M 291.222656 64.941406 L 340.785156 145.660156 "/>
<path style="fill:none;stroke-width:0.75;stroke-linecap:round;stroke-linejoin:round;stroke:rgb(66.27451%,66.27451%,66.27451%);stroke-opacity:1;stroke-miterlimit:10;" d="M 289.511719 64.929688 L 225.765625 145.671875 "/>
<path style="fill:none;stroke-width:0.75;stroke-linecap:round;stroke-linejoin:round;stroke:rgb(66.27451%,66.27451%,66.27451%);stroke-opacity:1;stroke-miterlimit:10;" d="M 290.359375 64.960938 L 283.285156 145.636719 "/>
<path style="fill:none;stroke-width:0.75;stroke-linecap:round;stroke-linejoin:round;stroke:rgb(66.27451%,66.27451%,66.27451%);stroke-opacity:1;stroke-miterlimit:10;" d="M 325.335938 64.863281 L 211.832031 145.734375 "/>
<path style="fill:none;stroke-width:0.75;stroke-linecap:round;stroke-linejoin:round;stroke:rgb(66.27451%,66.27451%,66.27451%);stroke-opacity:1;stroke-miterlimit:10;" d="M 327.382813 64.953125 L 355.695313 145.644531 "/>
<path style="fill:none;stroke-width:0.75;stroke-linecap:round;stroke-linejoin:round;stroke:rgb(66.27451%,66.27451%,66.27451%);stroke-opacity:1;stroke-miterlimit:10;" d="M 116.230469 64.933594 L 172.882813 145.664063 "/>
<path style="fill:none;stroke-width:0.75;stroke-linecap:round;stroke-linejoin:round;stroke:rgb(66.27451%,66.27451%,66.27451%);stroke-opacity:1;stroke-miterlimit:10;" d="M 115.152344 64.960938 L 101 145.640625 "/>
<path style="fill:none;stroke-width:0.75;stroke-linecap:round;stroke-linejoin:round;stroke:rgb(66.27451%,66.27451%,66.27451%);stroke-opacity:1;stroke-miterlimit:10;" d="M 116.71875 64.894531 L 208.871094 145.707031 "/>
<path style="fill:none;stroke-width:0.75;stroke-linecap:round;stroke-linejoin:round;stroke:rgb(66.27451%,66.27451%,66.27451%);stroke-opacity:1;stroke-miterlimit:10;" d="M 115.589844 64.960938 L 129.746094 145.640625 "/>
<path style="fill:none;stroke-width:0.75;stroke-linecap:round;stroke-linejoin:round;stroke:rgb(66.27451%,66.27451%,66.27451%);stroke-opacity:1;stroke-miterlimit:10;" d="M 115.371094 64.960938 L 115.371094 145.636719 "/>
<path style="fill:none;stroke-width:0.75;stroke-linecap:round;stroke-linejoin:round;stroke:rgb(66.27451%,66.27451%,66.27451%);stroke-opacity:1;stroke-miterlimit:10;" d="M 362.675781 64.941406 L 313.109375 145.660156 "/>
<path style="fill:none;stroke-width:0.75;stroke-linecap:round;stroke-linejoin:round;stroke:rgb(66.27451%,66.27451%,66.27451%);stroke-opacity:1;stroke-miterlimit:10;" d="M 362.46875 64.929688 L 298.722656 145.671875 "/>
<path style="fill:none;stroke-width:0.75;stroke-linecap:round;stroke-linejoin:round;stroke:rgb(66.27451%,66.27451%,66.27451%);stroke-opacity:1;stroke-miterlimit:10;" d="M 363.101563 64.957031 L 341.867188 145.640625 "/>
<path style="fill:none;stroke-width:0.75;stroke-linecap:round;stroke-linejoin:round;stroke:rgb(66.27451%,66.27451%,66.27451%);stroke-opacity:1;stroke-miterlimit:10;" d="M 159.367188 64.960938 L 173.519531 145.640625 "/>
<path style="fill:none;stroke-width:0.75;stroke-linecap:round;stroke-linejoin:round;stroke:rgb(66.27451%,66.27451%,66.27451%);stroke-opacity:1;stroke-miterlimit:10;" d="M 158.289063 64.933594 L 101.636719 145.664063 "/>
<path style="fill:none;stroke-width:0.75;stroke-linecap:round;stroke-linejoin:round;stroke:rgb(66.27451%,66.27451%,66.27451%);stroke-opacity:1;stroke-miterlimit:10;" d="M 159.898438 64.941406 L 209.464844 145.660156 "/>
<path style="fill:none;stroke-width:0.75;stroke-linecap:round;stroke-linejoin:round;stroke:rgb(66.27451%,66.27451%,66.27451%);stroke-opacity:1;stroke-miterlimit:10;" d="M 158.710938 64.953125 L 130.398438 145.644531 "/>
<path style="fill:none;stroke-width:0.75;stroke-linecap:round;stroke-linejoin:round;stroke:rgb(66.27451%,66.27451%,66.27451%);stroke-opacity:1;stroke-miterlimit:10;" d="M 159.148438 64.960938 L 159.148438 145.636719 "/>
<path style="fill:none;stroke-width:0.75;stroke-linecap:round;stroke-linejoin:round;stroke:rgb(66.27451%,66.27451%,66.27451%);stroke-opacity:1;stroke-miterlimit:10;" d="M 377.691406 64.957031 L 356.460938 145.640625 "/>
<path style="fill-rule:nonzero;fill:rgb(56.470588%,93.333333%,56.470588%);fill-opacity:1;stroke-width:0.75;stroke-linecap:round;stroke-linejoin:round;stroke:rgb(0%,0%,0%);stroke-opacity:1;stroke-miterlimit:10;" d="M 185.191406 63.714844 C 185.191406 69.257813 176.875 69.257813 176.875 63.714844 C 176.875 58.167969 185.191406 58.167969 185.191406 63.714844 "/>
<path style="fill-rule:nonzero;fill:rgb(56.470588%,93.333333%,56.470588%);fill-opacity:1;stroke-width:0.75;stroke-linecap:round;stroke-linejoin:round;stroke:rgb(0%,0%,0%);stroke-opacity:1;stroke-miterlimit:10;" d="M 214.375 63.714844 C 214.375 69.257813 206.058594 69.257813 206.058594 63.714844 C 206.058594 58.167969 214.375 58.167969 214.375 63.714844 "/>
<path style="fill-rule:nonzero;fill:rgb(56.470588%,93.333333%,56.470588%);fill-opacity:1;stroke-width:0.75;stroke-linecap:round;stroke-linejoin:round;stroke:rgb(0%,0%,0%);stroke-opacity:1;stroke-miterlimit:10;" d="M 134.121094 63.714844 C 134.121094 69.257813 125.804688 69.257813 125.804688 63.714844 C 125.804688 58.167969 134.121094 58.167969 134.121094 63.714844 "/>
<path style="fill-rule:nonzero;fill:rgb(56.470588%,93.333333%,56.470588%);fill-opacity:1;stroke-width:0.75;stroke-linecap:round;stroke-linejoin:round;stroke:rgb(0%,0%,0%);stroke-opacity:1;stroke-miterlimit:10;" d="M 352.996094 63.714844 C 352.996094 69.257813 344.675781 69.257813 344.675781 63.714844 C 344.675781 58.167969 352.996094 58.167969 352.996094 63.714844 "/>
<path style="fill-rule:nonzero;fill:rgb(56.470588%,93.333333%,56.470588%);fill-opacity:1;stroke-width:0.75;stroke-linecap:round;stroke-linejoin:round;stroke:rgb(0%,0%,0%);stroke-opacity:1;stroke-miterlimit:10;" d="M 294.628906 63.714844 C 294.628906 69.257813 286.3125 69.257813 286.3125 63.714844 C 286.3125 58.167969 294.628906 58.167969 294.628906 63.714844 "/>
<path style="fill-rule:nonzero;fill:rgb(56.470588%,93.333333%,56.470588%);fill-opacity:1;stroke-width:0.75;stroke-linecap:round;stroke-linejoin:round;stroke:rgb(0%,0%,0%);stroke-opacity:1;stroke-miterlimit:10;" d="M 331.109375 63.714844 C 331.109375 69.257813 322.789063 69.257813 322.789063 63.714844 C 322.789063 58.167969 331.109375 58.167969 331.109375 63.714844 "/>
<path style="fill-rule:nonzero;fill:rgb(56.470588%,93.333333%,56.470588%);fill-opacity:1;stroke-width:0.75;stroke-linecap:round;stroke-linejoin:round;stroke:rgb(0%,0%,0%);stroke-opacity:1;stroke-miterlimit:10;" d="M 119.53125 63.714844 C 119.53125 69.257813 111.214844 69.257813 111.214844 63.714844 C 111.214844 58.167969 119.53125 58.167969 119.53125 63.714844 "/>
<path style="fill-rule:nonzero;fill:rgb(56.470588%,93.333333%,56.470588%);fill-opacity:1;stroke-width:0.75;stroke-linecap:round;stroke-linejoin:round;stroke:rgb(0%,0%,0%);stroke-opacity:1;stroke-miterlimit:10;" d="M 367.585938 63.714844 C 367.585938 69.257813 359.269531 69.257813 359.269531 63.714844 C 359.269531 58.167969 367.585938 58.167969 367.585938 63.714844 "/>
<path style="fill-rule:nonzero;fill:rgb(56.470588%,93.333333%,56.470588%);fill-opacity:1;stroke-width:0.75;stroke-linecap:round;stroke-linejoin:round;stroke:rgb(0%,0%,0%);stroke-opacity:1;stroke-miterlimit:10;" d="M 163.304688 63.714844 C 163.304688 69.257813 154.988281 69.257813 154.988281 63.714844 C 154.988281 58.167969 163.304688 58.167969 163.304688 63.714844 "/>
<path style="fill-rule:nonzero;fill:rgb(56.470588%,93.333333%,56.470588%);fill-opacity:1;stroke-width:0.75;stroke-linecap:round;stroke-linejoin:round;stroke:rgb(0%,0%,0%);stroke-opacity:1;stroke-miterlimit:10;" d="M 382.179688 63.714844 C 382.179688 69.257813 373.859375 69.257813 373.859375 63.714844 C 373.859375 58.167969 382.179688 58.167969 382.179688 63.714844 "/>
<path style="fill-rule:nonzero;fill:rgb(67.843137%,84.705882%,90.196078%);fill-opacity:1;stroke-width:0.75;stroke-linecap:round;stroke-linejoin:round;stroke:rgb(0%,0%,0%);stroke-opacity:1;stroke-miterlimit:10;" d="M 316.515625 146.886719 C 316.515625 152.429688 308.199219 152.429688 308.199219 146.886719 C 308.199219 141.339844 316.515625 141.339844 316.515625 146.886719 "/>
<path style="fill-rule:nonzero;fill:rgb(67.843137%,84.705882%,90.196078%);fill-opacity:1;stroke-width:0.75;stroke-linecap:round;stroke-linejoin:round;stroke:rgb(0%,0%,0%);stroke-opacity:1;stroke-miterlimit:10;" d="M 177.898438 146.886719 C 177.898438 152.429688 169.578125 152.429688 169.578125 146.886719 C 169.578125 141.339844 177.898438 141.339844 177.898438 146.886719 "/>
<path style="fill-rule:nonzero;fill:rgb(67.843137%,84.705882%,90.196078%);fill-opacity:1;stroke-width:0.75;stroke-linecap:round;stroke-linejoin:round;stroke:rgb(0%,0%,0%);stroke-opacity:1;stroke-miterlimit:10;" d="M 104.9375 146.886719 C 104.9375 152.429688 96.621094 152.429688 96.621094 146.886719 C 96.621094 141.339844 104.9375 141.339844 104.9375 146.886719 "/>
<path style="fill-rule:nonzero;fill:rgb(67.843137%,84.705882%,90.196078%);fill-opacity:1;stroke-width:0.75;stroke-linecap:round;stroke-linejoin:round;stroke:rgb(0%,0%,0%);stroke-opacity:1;stroke-miterlimit:10;" d="M 214.375 146.886719 C 214.375 152.429688 206.058594 152.429688 206.058594 146.886719 C 206.058594 141.339844 214.375 141.339844 214.375 146.886719 "/>
<path style="fill-rule:nonzero;fill:rgb(67.843137%,84.705882%,90.196078%);fill-opacity:1;stroke-width:0.75;stroke-linecap:round;stroke-linejoin:round;stroke:rgb(0%,0%,0%);stroke-opacity:1;stroke-miterlimit:10;" d="M 301.925781 146.886719 C 301.925781 152.429688 293.605469 152.429688 293.605469 146.886719 C 293.605469 141.339844 301.925781 141.339844 301.925781 146.886719 "/>
<path style="fill-rule:nonzero;fill:rgb(67.843137%,84.705882%,90.196078%);fill-opacity:1;stroke-width:0.75;stroke-linecap:round;stroke-linejoin:round;stroke:rgb(0%,0%,0%);stroke-opacity:1;stroke-miterlimit:10;" d="M 134.121094 146.886719 C 134.121094 152.429688 125.804688 152.429688 125.804688 146.886719 C 125.804688 141.339844 134.121094 141.339844 134.121094 146.886719 "/>
<path style="fill-rule:nonzero;fill:rgb(67.843137%,84.705882%,90.196078%);fill-opacity:1;stroke-width:0.75;stroke-linecap:round;stroke-linejoin:round;stroke:rgb(0%,0%,0%);stroke-opacity:1;stroke-miterlimit:10;" d="M 360.289063 146.886719 C 360.289063 152.429688 351.972656 152.429688 351.972656 146.886719 C 351.972656 141.339844 360.289063 141.339844 360.289063 146.886719 "/>
<path style="fill-rule:nonzero;fill:rgb(67.843137%,84.705882%,90.196078%);fill-opacity:1;stroke-width:0.75;stroke-linecap:round;stroke-linejoin:round;stroke:rgb(0%,0%,0%);stroke-opacity:1;stroke-miterlimit:10;" d="M 331.109375 146.886719 C 331.109375 152.429688 322.789063 152.429688 322.789063 146.886719 C 322.789063 141.339844 331.109375 141.339844 331.109375 146.886719 "/>
<path style="fill-rule:nonzero;fill:rgb(67.843137%,84.705882%,90.196078%);fill-opacity:1;stroke-width:0.75;stroke-linecap:round;stroke-linejoin:round;stroke:rgb(0%,0%,0%);stroke-opacity:1;stroke-miterlimit:10;" d="M 345.699219 146.886719 C 345.699219 152.429688 337.382813 152.429688 337.382813 146.886719 C 337.382813 141.339844 345.699219 141.339844 345.699219 146.886719 "/>
<path style="fill-rule:nonzero;fill:rgb(67.843137%,84.705882%,90.196078%);fill-opacity:1;stroke-width:0.75;stroke-linecap:round;stroke-linejoin:round;stroke:rgb(0%,0%,0%);stroke-opacity:1;stroke-miterlimit:10;" d="M 272.742188 146.886719 C 272.742188 152.429688 264.425781 152.429688 264.425781 146.886719 C 264.425781 141.339844 272.742188 141.339844 272.742188 146.886719 "/>
<path style="fill-rule:nonzero;fill:rgb(67.843137%,84.705882%,90.196078%);fill-opacity:1;stroke-width:0.75;stroke-linecap:round;stroke-linejoin:round;stroke:rgb(0%,0%,0%);stroke-opacity:1;stroke-miterlimit:10;" d="M 228.96875 146.886719 C 228.96875 152.429688 220.648438 152.429688 220.648438 146.886719 C 220.648438 141.339844 228.96875 141.339844 228.96875 146.886719 "/>
<path style="fill-rule:nonzero;fill:rgb(67.843137%,84.705882%,90.196078%);fill-opacity:1;stroke-width:0.75;stroke-linecap:round;stroke-linejoin:round;stroke:rgb(0%,0%,0%);stroke-opacity:1;stroke-miterlimit:10;" d="M 119.53125 146.886719 C 119.53125 152.429688 111.214844 152.429688 111.214844 146.886719 C 111.214844 141.339844 119.53125 141.339844 119.53125 146.886719 "/>
<path style="fill-rule:nonzero;fill:rgb(67.843137%,84.705882%,90.196078%);fill-opacity:1;stroke-width:0.75;stroke-linecap:round;stroke-linejoin:round;stroke:rgb(0%,0%,0%);stroke-opacity:1;stroke-miterlimit:10;" d="M 287.332031 146.886719 C 287.332031 152.429688 279.015625 152.429688 279.015625 146.886719 C 279.015625 141.339844 287.332031 141.339844 287.332031 146.886719 "/>
<path style="fill-rule:nonzero;fill:rgb(67.843137%,84.705882%,90.196078%);fill-opacity:1;stroke-width:0.75;stroke-linecap:round;stroke-linejoin:round;stroke:rgb(0%,0%,0%);stroke-opacity:1;stroke-miterlimit:10;" d="M 163.304688 146.886719 C 163.304688 152.429688 154.988281 152.429688 154.988281 146.886719 C 154.988281 141.339844 163.304688 141.339844 163.304688 146.886719 "/>
<path style="fill-rule:nonzero;fill:rgb(67.843137%,84.705882%,90.196078%);fill-opacity:1;stroke-width:0.75;stroke-linecap:round;stroke-linejoin:round;stroke:rgb(0%,0%,0%);stroke-opacity:1;stroke-miterlimit:10;" d="M 258.148438 146.886719 C 258.148438 152.429688 249.832031 152.429688 249.832031 146.886719 C 249.832031 141.339844 258.148438 141.339844 258.148438 146.886719 "/>
<path style="fill-rule:nonzero;fill:rgb(67.843137%,84.705882%,90.196078%);fill-opacity:1;stroke-width:0.75;stroke-linecap:round;stroke-linejoin:round;stroke:rgb(0%,0%,0%);stroke-opacity:1;stroke-miterlimit:10;" d="M 148.714844 146.886719 C 148.714844 152.429688 140.398438 152.429688 140.398438 146.886719 C 140.398438 141.339844 148.714844 141.339844 148.714844 146.886719 "/>
<path style="fill-rule:nonzero;fill:rgb(67.843137%,84.705882%,90.196078%);fill-opacity:1;stroke-width:0.75;stroke-linecap:round;stroke-linejoin:round;stroke:rgb(0%,0%,0%);stroke-opacity:1;stroke-miterlimit:10;" d="M 374.882813 146.886719 C 374.882813 152.429688 366.566406 152.429688 366.566406 146.886719 C 366.566406 141.339844 374.882813 141.339844 374.882813 146.886719 "/>
<path style="fill-rule:nonzero;fill:rgb(67.843137%,84.705882%,90.196078%);fill-opacity:1;stroke-width:0.75;stroke-linecap:round;stroke-linejoin:round;stroke:rgb(0%,0%,0%);stroke-opacity:1;stroke-miterlimit:10;" d="M 243.558594 146.886719 C 243.558594 152.429688 235.242188 152.429688 235.242188 146.886719 C 235.242188 141.339844 243.558594 141.339844 243.558594 146.886719 "/>
</g>
</svg>
